# xmcd
#
# Track frame offsets:
#	150
#	17227
#	30800
#	42789
#	61608
#	74916
#	96338
#	111781
#	129702
#	148379
#	162296
#	181671
#	196260
#	212195
#	225544
#	243738
#
# Disc length: 3618 seconds
# Revision: 0
# Processed by: cddbd v1.5.2PL0 Copyright (c) Steve Scherf et al.
# Submitted via: dBpowerAMP V12.0
#
DISCID=e40e2010
DTITLE=Better Off With the Blues - Mean Old World
DYEAR=2012
DGENRE=Blues
TTITLE0=Mean Old World
TTITLE1=Daisy Blue
TTITLE2=Violent Love
TTITLE3=Corrina, Corrina
TTITLE4=France Blues
TTITLE5=Come Back Baby
TTITLE6=Diddie Wa Diddie
TTITLE7=Hobo Blues
TTITLE8=Sporting Life Blues
TTITLE9=Blues Ain't Nothin' to Sneeze At
TTITLE10=Music for a Living
TTITLE11=I Can't Be Satisfied
TTITLE12=You're Killin' Me
TTITLE13=Key to the Highway
TTITLE14=Swimmin' in Women
TTITLE15=Rock Me Baby
EXTD=
EXTT0=
EXTT1=
EXTT2=
EXTT3=
EXTT4=
EXTT5=
EXTT6=
EXTT7=
EXTT8=
EXTT9=
EXTT10=
EXTT11=
EXTT12=
EXTT13=
EXTT14=
EXTT15=
PLAYORDER=
